HIERARCHY
ROOT Hips
{
     OFFSET 21.13820 95.41870 -6.16536
     CHANNELS 6 Xposition Yposition Zposition Zrotation Xrotation Yrotation
     JOINT Spine
     {
          OFFSET 0.00000 11.89050 0.00000
          CHANNELS 3 Zrotation Xrotation Yrotation
          JOINT Spine1
          {
               OFFSET 0.00000 25.65740 0.12766
               CHANNELS 3 Zrotation Xrotation Yrotation
               JOINT HEad
               {
                    OFFSET 0.00000 8.73416 0.01134
                    CHANNELS 3 Zrotation Xrotation Yrotation
                    End Site
                    {
                         OFFSET -0.29000 12.77420 2.51395
                    }
               }
               JOINT LeftShoulder1
               {
                    OFFSET 8.99000 -0.36225 -0.22000
                    CHANNELS 3 Zrotation Xrotation Yrotation
                    JOINT LeftArm
                    {
                         OFFSET 10.28270 -0.00338 0.32212
                         CHANNELS 3 Zrotation Xrotation Yrotation
                         JOINT LeftForeArm
                         {
                              OFFSET 32.76690 0.09914 -1.42434
                              CHANNELS 3 Zrotation Xrotation Yrotation
                              JOINT LeftHand
                              {
                                   OFFSET 27.56430 0.08536 1.02216
                                   CHANNELS 3 Zrotation Xrotation Yrotation
                                   End Site
                                   {
                                        OFFSET 16.74430 -0.60000 1.50291
                                   }
                              }
                         }
                    }
               }
               JOINT RightShoulder
               {
                    OFFSET -8.99000 -0.36225 -0.22000
                    CHANNELS 3 Zrotation Xrotation Yrotation
                    JOINT RightArm
                    {
                         OFFSET -10.28270 -0.00338 0.32212
                         CHANNELS 3 Zrotation Xrotation Yrotation
                         JOINT RightForeArm
                         {
                              OFFSET -32.89710 0.09914 -1.42434
                              CHANNELS 3 Zrotation Xrotation Yrotation
                              JOINT RightHand
                              {
                                   OFFSET -27.49210 0.08536 1.02216
                                   CHANNELS 3 Zrotation Xrotation Yrotation
                                   End Site
                                   {
                                        OFFSET -16.63120 -0.60000 1.50291
                                   }
                              }
                         }
                    }
               }
          }
     }
     JOINT LeftUpLeg
     {
          OFFSET 8.94580 -8.66707 0.10165
          CHANNELS 3 Zrotation Xrotation Yrotation
          JOINT LeftLeg
          {
               OFFSET 0.00000 -44.42270 1.37270
               CHANNELS 3 Zrotation Xrotation Yrotation
               JOINT LeftFoot
               {
                    OFFSET -0.25355 -42.09240 -1.46059
                    CHANNELS 3 Zrotation Xrotation Yrotation
                    JOINT LeftToes
                    {
                         OFFSET -0.04000 -4.41509 8.49910
                         CHANNELS 3 Zrotation Xrotation Yrotation
                         End Site
                         {
                              OFFSET 0.08000 -0.04745 9.77979
                         }
                    }
               }
          }
     }
     JOINT RightUpLeg
     {
          OFFSET -8.94580 -8.66707 0.10165
          CHANNELS 3 Zrotation Xrotation Yrotation
          JOINT RightLeg
          {
               OFFSET 0.00000 -44.42270 1.37270
               CHANNELS 3 Zrotation Xrotation Yrotation
               JOINT RightFoot
               {
                    OFFSET 0.25355 -42.09240 -1.46059
                    CHANNELS 3 Zrotation Xrotation Yrotation
                    JOINT RightToes
                    {
                         OFFSET 0.04000 -4.41509 8.49910
                         CHANNELS 3 Zrotation Xrotation Yrotation
                         End Site
                         {
                              OFFSET -0.08000 -0.13745 9.77979
                         }
                    }
               }
          }
     }
}
MOTION
Frames: 14
Frame Time: 0.01667
-29.03010 95.74150 24.43040 -11.32310 8.52047 -120.76100 -3.50899 11.77830 -0.48717 -0.50071 23.17570 -1.99674 -0.72012 -5.07825 6.89239 0.00000 0.00000 0.00000 -87.61260 -52.81470 -75.06240 -24.38130 38.15040 -82.83140 16.77820 7.52613 -12.56790 17.26290 0.83828 1.76043 83.73080 -7.80019 70.75620 10.66630 33.17610 102.56000 16.45400 11.61200 7.16921 16.50210 -5.27530 -11.93750 -22.30650 10.23040 63.83060 -4.12505 14.01090 0.67704 4.88570 -22.28860 -62.73220 -29.89530 9.69966 19.88260 35.93370 0.73363 -27.78850 -31.00980 4.25551 3.21233 4.83263 -35.62650 9.55477 
-29.03010 95.74150 24.43040 -11.32310 8.52047 -120.76100 -3.50899 11.77830 -0.48717 -0.50071 23.17570 -1.99674 -0.72012 -5.07825 6.89239 0.00000 0.00000 0.00000 -87.61260 -52.81470 -75.06240 -24.38130 38.15040 -82.83140 16.77820 7.52613 -12.56790 17.26290 0.83828 1.76043 83.73080 -7.80019 70.75620 10.66630 33.17610 102.56000 16.45400 11.61200 7.16921 16.50210 -5.27530 -11.93750 -22.30650 10.23040 63.83060 -4.12505 14.01090 0.67704 4.88570 -22.28860 -62.73220 -29.89530 9.69966 19.88260 35.93370 0.73363 -27.78850 -31.00980 4.25551 3.21233 4.83263 -35.62650 9.55477 
-28.79790 95.78190 24.46970 -11.28560 8.66337 -120.72700 -3.02934 11.79150 -0.54070 -0.41536 23.23100 -1.90434 -0.82982 -5.00121 6.82070 0.00000 0.00000 0.00000 -87.59330 -52.70230 -75.04270 -24.31910 38.08420 -82.72460 16.70500 7.54038 -12.54490 17.37070 0.87805 1.94398 83.74470 -8.00001 70.79870 10.75440 33.23470 102.53800 16.49760 11.58700 6.97311 16.81920 -5.09014 -12.08830 -22.35400 9.58910 63.93590 -3.45758 14.46610 0.56222 4.59527 -23.07360 -62.71010 -29.78320 9.69017 19.74620 36.28760 1.09493 -28.91950 -31.36720 4.21906 3.24205 5.12891 -36.43580 10.26010 
-28.52360 95.86240 24.47900 -11.21330 8.86983 -120.59900 -2.30228 11.79050 -0.66748 -0.31794 23.27920 -1.82749 -0.90611 -4.98204 6.74780 0.00000 0.00000 0.00000 -87.18270 -52.39570 -74.77130 -24.08690 37.70210 -82.74640 16.56470 7.57045 -12.48080 17.50330 0.90690 2.06638 83.77300 -8.19103 70.87050 10.81370 33.28440 102.54300 16.47500 11.56880 6.86685 17.27050 -4.79734 -12.24360 -22.37170 8.67708 63.99330 -2.61214 15.04940 0.40938 4.28053 -23.91510 -62.78880 -29.59380 9.75308 19.58250 36.69020 1.58316 -30.07980 -31.92770 4.48658 3.38264 5.39355 -37.12960 10.86390 
-28.17800 95.87890 24.42660 -11.23410 8.99702 -120.41000 -1.74184 11.80230 -0.77969 -0.23789 23.34690 -1.78184 -0.96605 -5.00704 6.68636 0.00000 0.00000 0.00000 -86.46890 -51.94850 -74.31220 -23.74330 37.05670 -82.86770 16.36460 7.61229 -12.39450 17.64330 0.91725 2.09353 83.81630 -8.32996 70.96710 10.80810 33.31390 102.57800 16.39500 11.56460 6.89147 17.63140 -4.59760 -12.35110 -22.39070 7.97554 63.95840 -1.84199 15.60360 0.26297 3.99610 -24.66980 -62.83350 -29.35600 9.34584 19.21690 37.16130 3.39111 -31.36410 -32.28350 4.61640 3.46167 5.66414 -37.77830 11.49330 
-27.76700 95.85200 24.32650 -11.36940 9.06756 -120.16200 -1.31197 11.82920 -0.88988 -0.21136 23.44640 -1.77857 -1.02729 -5.04617 6.64058 0.00000 0.00000 0.00000 -85.69260 -51.47930 -73.81560 -23.40110 36.32890 -83.00510 16.13580 7.65586 -12.32410 17.75860 0.91694 2.07180 83.89050 -8.43063 71.07050 10.75480 33.32210 102.63600 16.29080 11.56890 6.98978 17.90500 -4.41530 -12.46240 -22.42060 7.38392 63.76200 -1.12522 16.09020 0.11995 3.80021 -25.20440 -62.65380 -29.11290 8.51765 18.66570 37.74500 6.42727 -32.67440 -32.40320 4.71643 3.50509 6.04880 -38.61080 12.40240 
-27.30000 95.82260 24.19330 -11.58510 9.14123 -119.85200 -0.85216 11.86250 -1.03732 -0.19936 23.57460 -1.81391 -1.09699 -5.08318 6.63500 0.00000 0.00000 0.00000 -85.07960 -51.08240 -73.41950 -23.13370 35.71100 -83.09510 15.94190 7.68929 -12.28840 17.81530 0.91512 2.05291 84.01480 -8.53369 71.17780 10.70700 33.33670 102.69400 16.19370 11.57340 7.08531 18.16430 -4.16218 -12.60050 -22.44400 6.73344 63.34990 -0.42012 16.53750 -0.02658 3.72375 -25.45230 -62.18020 -28.96880 7.79124 18.14960 38.37810 9.51805 -33.76400 -32.59350 5.27181 3.69216 6.63112 -39.78050 13.72350 
-26.77720 95.79730 24.02050 -11.86460 9.20797 -119.51700 -0.37593 11.89640 -1.20809 -0.20964 23.72200 -1.85883 -1.18702 -5.11972 6.70935 0.00000 0.00000 0.00000 -84.75090 -50.80330 -73.20010 -22.96650 35.33440 -83.11320 15.85010 7.70284 -12.28820 17.81230 0.91242 2.04003 84.16940 -8.65971 71.29110 10.70600 33.38610 102.71500 16.11510 11.57550 7.15364 18.40430 -3.83652 -12.70290 -22.41870 6.03530 62.71110 0.15891 16.98810 -0.15163 3.77765 -25.37020 -61.50680 -28.91750 7.16272 17.73840 39.00770 12.54720 -34.66960 -32.85870 6.14040 3.98444 7.30861 -41.00140 15.21380 
-26.20290 95.78270 23.80170 -12.17630 9.26589 -119.20000 0.11132 11.92110 -1.38405 -0.24466 23.86970 -1.87723 -1.33262 -5.16019 6.87737 0.00000 0.00000 0.00000 -84.68300 -50.62450 -73.13510 -22.86890 35.18780 -83.08580 15.86150 7.69747 -12.31570 17.77230 0.90611 2.01566 84.29750 -8.79529 71.39170 10.75720 33.45760 102.68500 16.05870 11.57740 7.20543 18.64610 -3.44894 -12.74670 -22.33200 5.29477 61.90420 0.44661 17.46080 -0.21793 3.97746 -24.88050 -60.76890 -28.92300 6.60940 17.50190 39.57870 15.42180 -35.44700 -33.17160 7.05098 4.30032 7.80500 -41.63610 16.46800 
-25.58320 95.77110 23.53070 -12.48090 9.30702 -118.92900 0.60447 11.92670 -1.55605 -0.29453 23.99520 -1.86192 -1.55262 -5.21069 7.10028 0.00000 0.00000 0.00000 -84.71430 -50.45720 -73.10290 -22.72240 35.08430 -83.10460 15.89400 7.68880 -12.34450 17.69140 0.89665 1.98242 84.37280 -8.90953 71.45190 10.85330 33.51560 102.61300 16.04190 11.57980 7.23330 18.92090 -3.05091 -12.80640 -22.22760 4.51641 61.07400 0.39195 17.90910 -0.21024 4.30736 -23.98960 -60.04430 -28.95350 6.11832 17.48300 40.04890 18.02390 -36.25340 -33.59140 7.77895 4.58161 7.91592 -41.21610 17.35000 
-24.92120 95.73710 23.20360 -12.75080 9.30653 -118.70500 1.08140 11.90830 -1.72122 -0.35358 24.08000 -1.83274 -1.81253 -5.26376 7.31537 0.00000 0.00000 0.00000 -84.70750 -50.23180 -72.99780 -22.43940 34.85270 -83.22780 15.87460 7.69148 -12.34580 17.53760 0.88669 1.95893 84.42520 -8.98220 71.45850 10.96760 33.54080 102.52600 16.08180 11.58170 7.21878 19.22990 -2.71390 -12.97540 -22.15110 3.71290 60.39460 0.18796 18.28160 -0.16778 4.66858 -22.95700 -59.38060 -29.00030 5.69629 17.67490 40.37350 20.22700 -37.25540 -34.25970 8.29421 4.84072 7.72305 -39.89910 18.10360 
-24.21330 95.65250 22.81830 -12.99280 9.24443 -118.51400 1.50768 11.86990 -1.87479 -0.43520 24.12100 -1.80598 -2.05004 -5.26691 7.47454 0.00000 0.00000 0.00000 -84.67190 -49.96750 -72.82220 -22.09860 34.50450 -83.37860 15.80450 7.70427 -12.32760 17.32750 0.87848 1.95355 84.45800 -9.02111 71.41480 11.04360 33.52740 102.46600 16.16220 11.58210 7.16640 19.54950 -2.48263 -13.30840 -22.11740 2.91462 59.99710 0.10837 18.58930 -0.15199 4.93195 -22.17200 -58.82400 -29.05530 5.37099 18.01570 40.49130 21.98540 -38.37150 -35.13590 8.73744 5.11643 7.50101 -38.45840 18.96610 
-23.44850 95.50420 22.36880 -13.24160 9.13047 -118.31600 1.85455 11.82350 -2.01380 -0.55171 24.13710 -1.79030 -2.22510 -5.15340 7.55352 0.00000 0.00000 0.00000 -84.67190 -49.70960 -72.63090 -21.85110 34.13260 -83.42480 15.71450 7.71772 -12.32620 17.15190 0.87182 1.95003 84.40580 -9.04624 71.34010 11.04370 33.47430 102.45600 16.24470 11.58050 7.09913 19.86910 -2.36608 -13.81170 -22.11400 2.18061 59.89640 0.22703 18.90140 -0.18157 5.04153 -21.83420 -58.38290 -29.08440 5.19183 18.42340 40.36030 23.34330 -39.20760 -35.89360 9.21011 5.39062 7.47730 -37.75720 19.80090 
-22.61130 95.29610 21.84530 -13.52890 9.00038 -118.05700 2.10658 11.78780 -2.14421 -0.68429 24.16300 -1.80765 -2.33837 -4.91939 7.57458 0.00000 0.00000 0.00000 -84.72400 -49.47260 -72.46200 -21.76880 33.77430 -83.30050 15.62250 7.72672 -12.36080 17.06340 0.86197 1.91492 84.24200 -9.05518 71.27110 10.97070 33.39510 102.48400 16.30780 11.57920 7.04765 20.19860 -2.35331 -14.40600 -22.09720 1.58998 59.93690 0.39933 19.29350 -0.22508 5.03131 -21.86300 -57.99590 -29.03340 5.22224 18.84120 39.99460 24.34370 -39.37390 -36.26260 9.60464 5.58118 7.74373 -38.26540 20.28460 
